# 3ds Max Wavefront OBJ Exporter v0.97b - (c)2007 guruware
# File Created: 05.03.2018 11:56:53

mtllib Cabinet_Iron_open.mtl

#
# object Cabinet_Open
#

v  -23.0000 22.0000 25.0000
v  -23.0000 53.0000 25.0000
v  23.0000 52.9688 25.0000
v  23.0000 22.0000 25.0000
v  13.7500 45.0000 -46.0000
v  12.7188 48.4375 -46.9375
v  12.7188 48.7500 -46.0000
v  10.2500 50.2813 -46.0000
v  12.7188 45.0000 -48.4688
v  10.2500 45.0000 -49.5000
v  10.2500 47.0000 -49.2500
v  12.7188 46.4063 -48.2813
v  12.7188 47.6250 -47.7500
v  10.2500 49.8750 -47.3438
v  -10.7500 50.2813 -46.0000
v  -10.7500 49.8750 -47.3438
v  -13.2188 48.7500 -46.0000
v  -13.2188 48.4375 -46.9375
v  -14.2500 45.0000 -46.0000
v  -13.2188 47.6250 -47.7500
v  -10.7500 48.7500 -48.4688
v  10.2500 48.7500 -48.4688
v  -10.7500 47.0000 -49.2500
v  -13.2188 46.4063 -48.2813
v  -13.2188 45.0000 -48.4688
v  -10.7500 45.0000 -49.5000
v  28.0000 147.0000 28.0000
v  -28.0000 147.0000 28.0000
v  -28.0000 14.0000 28.0000
v  28.0000 14.0000 28.0000
v  -28.0000 147.0000 -21.0000
v  -28.0000 146.0000 -24.5000
v  -28.0000 143.5000 -27.0469
v  -28.0000 140.0000 -28.0000
v  -28.0000 96.0000 -28.0000
v  -28.0000 57.0000 -28.0000
v  -28.0000 14.0000 -28.0000
v  28.0000 147.0000 -21.0000
v  28.0000 14.0000 -28.0000
v  -22.0000 48.0000 -43.0000
v  -22.0000 48.0000 5.9805
v  -22.0000 23.0000 5.9805
v  -22.0000 22.9844 -43.0000
v  22.0000 48.0000 -43.0000
v  22.0000 22.9844 -43.0000
v  22.0000 48.0000 5.9805
v  22.0000 23.0000 5.9805
v  -23.0000 48.0000 -45.0000
v  -23.0000 48.0000 7.4805
v  23.0000 48.0000 -45.0000
v  23.0000 48.0000 7.4805
v  23.0000 22.0000 7.4805
v  23.0000 22.0000 -45.0000
v  -23.0000 22.0000 7.4805
v  -23.0000 22.0000 -45.0000
v  25.0000 55.0000 -45.0000
v  25.0000 20.0000 -45.0000
v  25.0000 20.0000 -46.0000
v  25.0000 55.0000 -46.0000
v  -25.0000 55.0000 -45.0000
v  -25.0000 55.0000 -46.0000
v  -25.0000 20.0000 -45.0000
v  -25.0000 20.0000 -46.0000
v  -22.0000 82.7500 -62.7500
v  -22.0000 89.0000 -14.1641
v  -22.0000 64.1875 -10.9844
v  -22.0000 57.9688 -59.5625
v  22.0000 82.7500 -62.7500
v  22.0000 57.9688 -59.5625
v  22.0000 89.0000 -14.1641
v  22.0000 64.1875 -10.9844
v  -23.0000 82.5000 -64.7500
v  -23.0000 89.1875 -12.6719
v  23.0000 82.5000 -64.7500
v  23.0000 89.1875 -12.6719
v  23.0000 63.4063 -9.3750
v  23.0000 56.7188 -61.4375
v  -23.0000 63.4063 -9.3750
v  -23.0000 56.7188 -61.4375
v  25.0000 89.4375 -65.6250
v  25.0000 54.7500 -61.1875
v  25.0000 54.6250 -62.1563
v  25.0000 89.3125 -66.6250
v  -25.0000 89.4375 -65.6250
v  -25.0000 89.3125 -66.6250
v  -25.0000 54.7500 -61.1875
v  -25.0000 54.6250 -62.1563
v  -22.0000 124.8125 -46.5000
v  -22.0000 128.0000 2.3750
v  -22.0000 103.0625 4.0039
v  -22.0000 99.8750 -44.8750
v  22.0000 124.8125 -46.5000
v  22.0000 99.8750 -44.8750
v  22.0000 128.0000 2.3750
v  22.0000 103.0625 4.0039
v  -23.0000 124.6875 -48.5000
v  -23.0000 128.1250 3.8711
v  23.0000 124.6875 -48.5000
v  23.0000 128.1250 3.8711
v  23.0000 102.1875 5.5664
v  23.0000 98.7500 -46.8125
v  -23.0000 102.1875 5.5664
v  -23.0000 98.7500 -46.8125
v  25.0000 131.6250 -48.9688
v  25.0000 96.7500 -46.6875
v  25.0000 96.6875 -47.6563
v  25.0000 131.6250 -49.9688
v  -25.0000 131.6250 -48.9688
v  -25.0000 131.6250 -49.9688
v  -25.0000 96.7500 -46.6875
v  -25.0000 96.6875 -47.6563
v  28.0000 0.0000 28.0000
v  28.0000 0.0000 24.5000
v  28.0000 14.0000 22.8281
v  24.5000 0.0000 28.0000
v  22.8281 14.0000 28.0000
v  24.5000 0.0000 24.5000
v  22.8281 14.0000 22.8281
v  -28.0000 0.0000 28.0000
v  -28.0000 14.0000 22.8281
v  -28.0000 0.0000 24.5000
v  -24.5000 0.0000 28.0000
v  -22.8281 14.0000 28.0000
v  -24.5000 0.0000 24.5000
v  -22.8281 14.0000 22.8281
v  28.0000 0.0000 -28.0000
v  28.0000 14.0000 -22.8281
v  28.0000 0.0000 -24.5000
v  24.5000 0.0000 -28.0000
v  22.8281 14.0000 -28.0000
v  24.5000 0.0000 -24.5000
v  22.8281 14.0000 -22.8281
v  -28.0000 0.0000 -28.0000
v  -28.0000 0.0000 -24.5000
v  -28.0000 14.0000 -22.8281
v  -24.5000 0.0000 -28.0000
v  -22.8281 14.0000 -28.0000
v  -24.5000 0.0000 -24.5000
v  -22.8281 14.0000 -22.8281
v  23.0000 61.0000 -28.0000
v  -23.0000 61.0000 -28.0000
v  -23.0000 61.0000 25.0000
v  23.0000 61.0000 25.0000
v  23.0000 93.0000 -28.0000
v  23.0000 93.0000 25.0000
v  -23.0000 93.0000 -28.0000
v  -23.0000 93.0000 25.0000
v  23.0000 99.9375 -28.0000
v  -23.0000 99.9375 -28.0000
v  -23.0000 99.9375 25.0000
v  23.0000 99.9375 25.0000
v  23.0000 130.8750 -28.0000
v  23.0000 130.8750 25.0000
v  -23.0000 131.0000 -28.0000
v  -23.0000 131.0000 25.0000
v  23.0000 52.9688 -28.0000
v  23.0000 22.0000 -28.0000
v  -23.0000 53.0000 -28.0000
v  -23.0000 22.0000 -28.0000
v  28.0000 139.8750 -28.0000
v  28.0000 143.5000 -27.0469
v  28.0000 146.0000 -24.5000
v  -10.7500 81.0000 -68.8125
v  10.2500 81.0000 -68.8125
v  10.2500 78.9375 -68.8125
v  12.7188 79.0625 -67.8125
v  12.7188 80.5000 -67.8125
v  13.7500 79.3750 -65.3125
v  10.2500 82.8125 -68.2500
v  -10.7500 82.8125 -68.2500
v  -13.2188 81.8125 -67.3750
v  -13.2188 80.5000 -67.8125
v  -14.2500 79.3750 -65.3125
v  -13.2188 79.0625 -67.8125
v  -10.7500 78.9375 -68.8125
v  10.2500 84.0625 -67.3125
v  12.7188 82.6875 -66.6875
v  12.7188 81.8125 -67.3750
v  -10.7500 84.0625 -67.3125
v  -13.2188 82.6875 -66.6875
v  -13.2188 83.1250 -65.8125
v  -10.7500 84.6250 -66.0000
v  10.2500 84.6250 -66.0000
v  12.7188 83.1250 -65.8125
v  -10.7500 123.4375 -52.6563
v  10.2500 123.4375 -52.6563
v  10.2500 121.3750 -52.7813
v  12.7188 121.4375 -51.7813
v  12.7188 122.9375 -51.6875
v  13.7500 121.6250 -49.3125
v  12.7188 124.1875 -51.2188
v  12.7188 125.0000 -50.4688
v  10.2500 126.4375 -50.9688
v  10.2500 126.9375 -49.6563
v  -10.7500 126.9375 -49.6563
v  -10.7500 126.4375 -50.9688
v  12.7188 125.3750 -49.5625
v  -13.2188 125.3750 -49.5625
v  -13.2188 125.0000 -50.4688
v  -14.2500 121.6250 -49.3125
v  -13.2188 124.1875 -51.2188
v  -10.7500 125.1875 -52.0313
v  10.2500 125.1875 -52.0313
v  -13.2188 122.9375 -51.6875
v  -13.2188 121.4375 -51.7813
v  -10.7500 121.3750 -52.7813
v  28.0000 57.0000 -28.0000
v  28.0000 95.9375 -28.0000
# 208 vertices

vn 0.0000 0.0000 -1.0000
vn 0.9502 0.1532 -0.2714
vn 0.8023 0.4773 -0.3583
vn 0.9605 0.2641 -0.0880
vn 0.0846 0.9526 -0.2922
vn 0.5071 0.8176 -0.2725
vn 0.6896 0.0940 -0.7180
vn 0.1922 0.1217 -0.9738
vn 0.1215 0.2259 -0.9665
vn 0.5734 0.1990 -0.7947
vn 0.9321 0.1448 -0.3321
vn 0.7274 0.3810 -0.5707
vn 0.2526 0.8343 -0.4901
vn 0.5176 0.8190 -0.2476
vn -0.2511 0.9265 -0.2801
vn -0.2508 0.8341 -0.4913
vn -0.5155 0.8150 -0.2647
vn -0.6416 0.6335 -0.4324
vn -0.9605 0.2641 -0.0880
vn -0.9456 0.1510 -0.2883
vn -0.7282 0.3814 -0.5694
vn -0.2249 0.5597 -0.7976
vn 0.2254 0.5592 -0.7978
vn 0.4152 0.3709 -0.8307
vn -0.1449 0.3103 -0.9395
vn -0.7381 0.1963 -0.6456
vn -0.6883 0.0959 -0.7191
vn -0.0902 0.1253 -0.9880
vn -0.3866 0.1144 -0.9151
vn 0.0000 0.0000 1.0000
vn -1.0000 0.0000 -0.0000
vn 0.0000 1.0000 -0.0000
vn 0.0000 -1.0000 -0.0000
vn 1.0000 0.0000 -0.0000
vn 0.0000 1.0000 -0.0003
vn 0.0000 0.1276 0.9918
vn 0.0000 -0.1271 -0.9919
vn 0.0034 0.9920 -0.1258
vn -0.0020 0.9920 -0.1260
vn 0.0036 0.9920 -0.1258
vn -0.0034 0.9921 -0.1257
vn -0.0033 0.9921 -0.1257
vn 0.0020 0.9920 -0.1261
vn 0.0022 0.9920 -0.1261
vn 0.0000 0.9919 -0.1270
vn 0.0000 -0.9919 0.1274
vn 0.0000 -0.1274 -0.9918
vn 0.0000 0.1268 0.9919
vn 0.0000 0.9923 -0.1240
vn 0.0000 -0.9918 0.1280
vn 0.0000 -0.1278 -0.9918
vn 0.0000 0.1269 0.9919
vn 0.0000 0.0650 0.9979
vn 0.0000 -0.0652 -0.9979
vn 0.0032 0.9980 -0.0637
vn 0.0134 0.9971 -0.0744
vn 0.0133 0.9971 -0.0744
vn 0.0027 0.9980 -0.0637
vn -0.0031 0.9979 -0.0639
vn -0.0032 0.9979 -0.0639
vn -0.0133 0.9972 -0.0742
vn -0.0137 0.9972 -0.0742
vn 0.0000 0.9979 -0.0651
vn 0.0000 -0.9979 0.0655
vn 0.0000 -0.0649 -0.9979
vn 0.0000 0.0652 0.9979
vn 0.0000 -0.9979 0.0644
vn 0.0000 -0.0660 -0.9978
vn 0.0000 0.0653 0.9979
vn -0.9929 -0.1186 -0.0000
vn 0.0000 -0.1186 -0.9929
vn 0.9929 -0.1186 -0.0000
vn 0.0000 -0.1186 0.9929
vn -0.0027 -1.0000 -0.0000
vn -0.0007 -1.0000 -0.0000
vn 0.0000 0.2546 -0.9670
vn 0.0006 0.2628 -0.9649
vn 0.0003 0.5056 -0.8628
vn 0.0000 0.5020 -0.8649
vn 0.0000 0.8642 -0.5031
vn 0.0000 0.9615 -0.2747
vn -0.2009 0.1535 -0.9675
vn 0.1989 0.1521 -0.9681
vn 0.1883 0.0000 -0.9821
vn 0.6890 0.0000 -0.7248
vn 0.7021 0.1090 -0.7037
vn 0.9471 0.1138 -0.3000
vn 0.2245 0.4514 -0.8636
vn -0.2274 0.4511 -0.8630
vn -0.7309 0.3172 -0.6042
vn -0.7008 0.1112 -0.7046
vn -0.9471 0.1138 -0.3000
vn -0.6890 0.0000 -0.7248
vn -0.1883 0.0000 -0.9821
vn 0.2542 0.7658 -0.5907
vn 0.7608 0.5020 -0.4114
vn 0.7338 0.3163 -0.6012
vn -0.2517 0.7643 -0.5937
vn -0.7616 0.4969 -0.4159
vn -0.7531 0.5923 -0.2863
vn -0.2500 0.8899 -0.3814
vn 0.2555 0.8865 -0.3858
vn 0.7450 0.5966 -0.2983
vn -0.1980 0.2017 -0.9592
vn 0.1965 0.2009 -0.9597
vn 0.1875 0.0594 -0.9805
vn 0.6849 0.0450 -0.7272
vn 0.6995 0.1466 -0.6995
vn 0.9461 0.1298 -0.2969
vn 0.7292 0.3519 -0.5869
vn 0.7627 0.5279 -0.3737
vn 0.2534 0.7961 -0.5495
vn 0.2567 0.9023 -0.3465
vn -0.2541 0.9038 -0.3443
vn -0.2535 0.7944 -0.5519
vn 0.7516 0.6095 -0.2522
vn -0.7554 0.6071 -0.2468
vn -0.7608 0.5260 -0.3801
vn -0.9461 0.1298 -0.2969
vn -0.7258 0.3552 -0.5891
vn -0.2239 0.4961 -0.8389
vn 0.2198 0.4955 -0.8403
vn -0.6984 0.1481 -0.7003
vn -0.6846 0.0455 -0.7275
vn -0.1878 0.0597 -0.9804
# 125 vertex normals

vt 0.5361 0.0054 0.0054
vt 0.6934 0.0054 0.0054
vt 0.6934 0.2646 0.2646
vt 0.5361 0.2646 0.2646
vt 0.9722 0.7041 0.7041
vt 0.9629 0.7114 0.7114
vt 0.9551 0.7114 0.7114
vt 0.9478 0.7297 0.7297
vt 0.9897 0.7114 0.7114
vt 0.9971 0.7297 0.7297
vt 0.9854 0.7297 0.7297
vt 0.9814 0.7114 0.7114
vt 0.9722 0.7114 0.7114
vt 0.9590 0.7297 0.7297
vt 0.9478 0.8833 0.8833
vt 0.9590 0.8833 0.8833
vt 0.9551 0.9014 0.9014
vt 0.9629 0.9014 0.9014
vt 0.9722 0.9089 0.9089
vt 0.9722 0.9014 0.9014
vt 0.9722 0.8833 0.8833
vt 0.9722 0.7297 0.7297
vt 0.9854 0.8833 0.8833
vt 0.9814 0.9014 0.9014
vt 0.9897 0.9014 0.9014
vt 0.9971 0.8833 0.8833
vt 0.5361 0.8933 0.8933
vt 0.2717 0.8933 0.8933
vt 0.2717 0.2646 0.2646
vt 0.7681 0.8933 0.8933
vt 0.7847 0.8889 0.8889
vt 0.7964 0.8767 0.8767
vt 0.8008 0.8602 0.8602
vt 0.8008 0.6523 0.6523
vt 0.8008 0.4683 0.4683
vt 0.8008 0.2646 0.2646
vt 0.2646 0.8724 0.8724
vt 0.0000 0.8724 0.8724
vt 0.0000 0.6409 0.6409
vt 0.2646 0.6409 0.6409
vt 0.2717 0.0000 0.0000
vt 0.5361 0.0000 0.0000
vt 0.2578 0.9010 0.9010
vt 0.5088 0.9010 0.9010
vt 0.5083 0.9854 0.9854
vt 0.2578 0.9854 0.9854
vt 0.5083 0.9010 0.9010
vt 0.5088 0.9854 0.9854
vt 0.7778 0.9882 0.9882
vt 0.5093 0.9882 0.9882
vt 0.5171 0.9934 0.9934
vt 0.7676 0.9934 0.9934
vt 0.7446 0.9882 0.9882
vt 0.7393 0.9985 0.9985
vt 0.5142 0.9985 0.9985
vt 0.5142 0.9959 0.9959
vt 0.7393 0.9959 0.9959
vt 0.5093 0.9005 0.9005
vt 0.7778 0.9005 0.9005
vt 0.9912 0.6982 0.6982
vt 0.8057 0.6982 0.6982
vt 0.8057 0.4912 0.4912
vt 0.9912 0.4912 0.4912
vt 0.8057 0.2695 0.2695
vt 0.9995 0.2695 0.2695
vt 0.9995 0.4912 0.4912
vt 0.6274 0.9884 0.9884
vt 0.5093 0.9884 0.9884
vt 0.5093 0.9935 0.9935
vt 0.6274 0.9935 0.9935
vt 0.7651 0.9935 0.9935
vt 0.7651 0.9884 0.9884
vt 0.9434 0.7000 0.7000
vt 0.9434 0.9971 0.9971
vt 0.8062 0.9971 0.9971
vt 0.8062 0.7000 0.7000
vt 0.2556 0.8745 0.8745
vt 0.2556 0.9927 0.9927
vt -0.0002 0.9927 0.9927
vt -0.0002 0.8745 0.8745
vt 0.9238 0.0537 0.0537
vt 0.9731 0.0537 0.0537
vt 0.9961 0.2495 0.2495
vt 0.9238 0.2495 0.2495
vt 0.9238 0.2510 0.2510
vt 0.9961 0.2510 0.2510
vt 0.9238 0.0049 0.0049
vt 0.9731 0.0049 0.0049
vt 0.9185 0.0054 0.0054
vt 0.9185 0.2651 0.2651
vt 0.6934 0.2651 0.2651
vt 0.5361 0.2651 0.2651
vt 0.0000 0.5957 0.5957
vt 0.2646 0.5957 0.5957
vt 0.2646 0.6123 0.6123
vt 0.0000 0.6123 0.6123
vt 0.2646 0.6243 0.6243
vt 0.0000 0.6243 0.6243
vt 0.2646 0.0000 0.0000
vt 0.2646 0.2036 0.2036
vt 0.2411 0.1846 0.1846
vt 0.0236 0.1846 0.1846
vt 0.0000 0.2036 0.2036
vt 0.0236 0.0381 0.0381
vt 0.0000 0.0000 0.0000
vt 0.2411 0.0381 0.0381
vt 0.2411 0.2227 0.2227
vt 0.0236 0.2227 0.2227
vt 0.0000 0.3877 0.3877
vt 0.0236 0.3735 0.3735
vt 0.2646 0.3877 0.3877
vt 0.2411 0.3735 0.3735
vt 0.2411 0.5532 0.5532
vt 0.0236 0.5532 0.5532
vt 0.0236 0.4067 0.4067
vt 0.2411 0.4067 0.4067
vt 0.8008 0.8601 0.8601
# 117 texture coords

g Cabinet_Open
usemtl Cabinet_Shader
s 1
f 1/1/1 2/2/1 3/3/1 
s 2
f 3/3/1 4/4/1 1/1/1 
s 3
f 5/5/2 6/6/3 7/7/4 
s 4
f 8/8/5 7/7/6 6/6/6 
s 5
f 9/9/7 10/10/8 11/11/9 
s 6
f 11/11/9 12/12/10 9/9/7 
s 7
f 5/5/2 9/9/7 12/12/10 
s 8
f 5/5/11 12/12/11 13/13/12 
s 9
f 5/5/2 13/13/12 6/6/3 
s 10
f 14/14/13 6/6/3 13/13/12 
s 11
f 6/6/3 14/14/13 8/8/14 
s 12
f 15/15/15 8/8/5 14/14/13 
s 13
f 14/14/13 16/16/16 15/15/15 
s 14
f 17/17/17 15/15/15 16/16/16 
s 15
f 16/16/16 18/18/18 17/17/17 
s 16
f 18/18/19 19/19/20 17/17/19 
s 17
f 20/20/21 19/19/20 18/18/18 
s 18
f 21/21/22 20/20/21 18/18/18 
s 19
f 18/18/18 16/16/16 21/21/22 
s 20
f 22/22/23 21/21/22 16/16/16 
s 21
f 16/16/16 14/14/13 22/22/23 
s 22
f 13/13/12 22/22/23 14/14/13 
s 23
f 22/22/23 13/13/12 12/12/10 
s 24
f 12/12/10 11/11/24 22/22/23 
s 25
f 21/21/22 22/22/23 11/11/9 
s 26
f 11/11/9 23/23/25 21/21/22 
s 27
f 20/20/21 21/21/22 23/23/25 
s 28
f 23/23/25 24/24/26 20/20/21 
s 29
f 24/24/26 19/19/20 20/20/21 
s 30
f 25/25/27 19/19/20 24/24/26 
s 31
f 26/26/28 25/25/27 24/24/26 
s 32
f 24/24/29 23/23/29 26/26/29 
s 33
f 10/10/8 26/26/28 23/23/25 
s 34
f 23/23/25 11/11/9 10/10/8 
s 35
f 27/27/30 28/28/30 29/29/30 
s 36
f 29/29/30 30/4/30 27/27/30 
s 37
f 28/27/31 31/30/31 32/31/31 
s 38
f 28/27/31 32/31/31 33/32/31 
s 39
f 28/27/31 33/32/31 34/33/31 
s 40
f 28/27/31 34/33/31 35/34/31 
s 41
f 28/27/31 35/34/31 36/35/31 
s 42
f 28/27/31 36/35/31 37/36/31 
s 43
f 28/27/31 37/36/31 29/4/31 
s 44
f 28/37/32 27/38/32 38/39/32 
s 45
f 38/39/32 31/40/32 28/37/32 
s 46
f 29/29/33 37/41/33 39/42/33 
s 47
f 39/42/33 30/4/33 29/29/33 
s 48
f 40/43/34 41/44/34 42/45/34 
s 49
f 42/45/34 43/46/34 40/43/34 
s 50
f 44/45/30 40/46/30 43/43/30 
s 51
f 43/43/30 45/47/30 44/45/30 
s 52
f 46/48/31 44/46/31 45/43/31 
s 53
f 45/43/31 47/47/31 46/48/31 
s 54
f 41/43/1 46/47/1 47/45/1 
s 55
f 47/45/1 42/46/1 41/43/1 
s 56
f 48/49/32 49/50/32 41/51/32 
s 57
f 41/51/32 40/52/32 48/49/32 
s 58
f 50/50/32 48/53/32 40/54/32 
s 59
f 40/54/32 44/55/32 50/50/32 
s 60
f 51/50/32 50/49/32 44/52/32 
s 61
f 44/52/32 46/51/32 51/50/32 
s 62
f 49/53/32 51/50/32 46/56/32 
s 63
f 46/56/32 41/57/32 49/53/32 
s 64
f 51/50/34 52/58/34 53/59/34 
s 65
f 53/59/34 50/49/34 51/50/34 
s 66
f 42/60/35 47/61/35 45/62/35 
s 67
f 45/62/35 43/63/35 42/60/35 
s 68
f 54/50/31 49/58/31 48/59/31 
s 69
f 48/59/31 55/49/31 54/50/31 
s 70
f 52/64/33 54/65/33 55/66/33 
s 71
f 55/66/33 53/62/33 52/64/33 
s 72
f 53/58/1 55/59/1 48/49/1 
s 73
f 48/49/1 50/50/1 53/58/1 
s 74
f 52/50/30 51/58/30 49/59/30 
s 75
f 49/59/30 54/49/30 52/50/30 
s 76
f 56/67/34 57/68/34 58/69/34 
s 77
f 58/69/34 59/70/34 56/67/34 
s 78
f 60/69/32 56/71/32 59/72/32 
s 79
f 59/72/32 61/68/32 60/69/32 
s 80
f 62/67/31 60/68/31 61/69/31 
s 81
f 61/69/31 63/70/31 62/67/31 
s 82
f 57/72/33 62/68/33 63/69/33 
s 83
f 63/69/33 58/71/33 57/72/33 
s 84
f 58/73/1 63/74/1 61/75/1 
s 85
f 61/75/1 59/76/1 58/73/1 
s 86
f 57/77/30 56/78/30 60/79/30 
s 87
f 60/79/30 62/80/30 57/77/30 
s 88
f 64/43/34 65/44/34 66/45/34 
s 89
f 66/45/34 67/46/34 64/43/34 
s 90
f 68/45/36 64/46/36 67/43/36 
s 91
f 67/43/36 69/47/36 68/45/36 
s 92
f 70/48/31 68/46/31 69/43/31 
s 93
f 69/43/31 71/47/31 70/48/31 
s 94
f 65/43/37 70/47/37 71/45/37 
s 95
f 71/45/37 66/46/37 65/43/37 
s 96
f 72/49/38 73/50/39 65/51/39 
s 97
f 65/51/39 64/52/40 72/49/38 
s 98
f 74/50/41 72/53/38 64/54/40 
s 99
f 64/54/40 68/55/42 74/50/41 
s 100
f 75/50/43 74/49/41 68/52/42 
s 101
f 68/52/42 70/51/44 75/50/43 
s 102
f 73/53/39 75/50/43 70/56/44 
s 103
f 70/56/44 65/57/39 73/53/39 
s 104
f 75/50/34 76/58/34 77/59/34 
s 105
f 77/59/34 74/49/34 75/50/34 
s 106
f 66/60/45 71/61/45 69/62/45 
s 107
f 69/62/45 67/63/45 66/60/45 
s 108
f 78/50/31 73/58/31 72/59/31 
s 109
f 72/59/31 79/49/31 78/50/31 
s 110
f 76/64/46 78/65/46 79/66/46 
s 111
f 79/66/46 77/62/46 76/64/46 
s 112
f 77/58/47 79/59/47 72/49/47 
s 113
f 72/49/47 74/50/47 77/58/47 
s 114
f 76/50/48 75/58/48 73/59/48 
s 115
f 73/59/48 78/49/48 76/50/48 
s 116
f 80/67/34 81/68/34 82/69/34 
s 117
f 82/69/34 83/70/34 80/67/34 
s 118
f 84/69/49 80/71/49 83/72/49 
s 119
f 83/72/49 85/68/49 84/69/49 
s 120
f 86/67/31 84/68/31 85/69/31 
s 121
f 85/69/31 87/70/31 86/67/31 
s 122
f 81/72/50 86/68/50 87/69/50 
s 123
f 87/69/50 82/71/50 81/72/50 
s 124
f 82/73/51 87/74/51 85/75/51 
s 125
f 85/75/51 83/76/51 82/73/51 
s 126
f 81/77/52 80/78/52 84/79/52 
s 127
f 84/79/52 86/80/52 81/77/52 
s 128
f 88/43/34 89/44/34 90/45/34 
s 129
f 90/45/34 91/46/34 88/43/34 
s 130
f 92/45/53 88/46/53 91/43/53 
s 131
f 91/43/53 93/47/53 92/45/53 
s 132
f 94/48/31 92/46/31 93/43/31 
s 133
f 93/43/31 95/47/31 94/48/31 
s 134
f 89/43/54 94/47/54 95/45/54 
s 135
f 95/45/54 90/46/54 89/43/54 
s 136
f 96/49/55 97/50/56 89/51/57 
s 137
f 89/51/57 88/52/58 96/49/55 
s 138
f 98/50/59 96/53/55 88/54/58 
s 139
f 88/54/58 92/55/60 98/50/59 
s 140
f 99/50/61 98/49/59 92/52/60 
s 141
f 92/52/60 94/51/62 99/50/61 
s 142
f 97/53/56 99/50/61 94/56/62 
s 143
f 94/56/62 89/57/57 97/53/56 
s 144
f 99/50/34 100/58/34 101/59/34 
s 145
f 101/59/34 98/49/34 99/50/34 
s 146
f 90/60/63 95/61/63 93/62/63 
s 147
f 93/62/63 91/63/63 90/60/63 
s 148
f 102/50/31 97/58/31 96/59/31 
s 149
f 96/59/31 103/49/31 102/50/31 
s 150
f 100/64/64 102/65/64 103/66/64 
s 151
f 103/66/64 101/62/64 100/64/64 
s 152
f 101/58/65 103/59/65 96/49/65 
s 153
f 96/49/65 98/50/65 101/58/65 
s 154
f 100/50/66 99/58/66 97/59/66 
s 155
f 97/59/66 102/49/66 100/50/66 
s 156
f 104/67/34 105/68/34 106/69/34 
s 157
f 106/69/34 107/70/34 104/67/34 
s 158
f 108/69/32 104/71/32 107/72/32 
s 159
f 107/72/32 109/68/32 108/69/32 
s 160
f 110/67/31 108/68/31 109/69/31 
s 161
f 109/69/31 111/70/31 110/67/31 
s 162
f 105/72/67 110/68/67 111/69/67 
s 163
f 111/69/67 106/71/67 105/72/67 
s 164
f 106/73/68 111/74/68 109/75/68 
s 165
f 109/75/68 107/76/68 106/73/68 
s 166
f 105/77/69 104/78/69 108/79/69 
s 167
f 108/79/69 110/80/69 105/77/69 
s 168
f 112/81/34 113/82/34 114/83/34 
s 169
f 114/83/34 30/84/34 112/81/34 
s 170
f 115/82/30 112/81/30 30/84/30 
s 171
f 30/84/30 116/83/30 115/82/30 
s 172
f 117/82/70 115/81/70 116/85/70 
s 173
f 116/85/70 118/86/70 117/82/70 
s 174
f 113/81/71 117/82/71 118/86/71 
s 175
f 118/86/71 114/85/71 113/81/71 
s 176
f 113/82/33 112/81/33 115/87/33 
s 177
f 115/87/33 117/88/33 113/82/33 
s 178
f 119/81/31 29/84/31 120/83/31 
s 179
f 120/83/31 121/82/31 119/81/31 
s 180
f 122/82/30 123/83/30 29/84/30 
s 181
f 29/84/30 119/81/30 122/82/30 
s 182
f 124/82/72 125/83/72 123/84/72 
s 183
f 123/84/72 122/81/72 124/82/72 
s 184
f 121/81/71 120/85/71 125/86/71 
s 185
f 125/86/71 124/82/71 121/81/71 
s 186
f 121/82/33 124/88/33 122/87/33 
s 187
f 122/87/33 119/81/33 121/82/33 
s 188
f 126/81/34 39/84/34 127/83/34 
s 189
f 127/83/34 128/82/34 126/81/34 
s 190
f 129/82/1 130/83/1 39/84/1 
s 191
f 39/84/1 126/81/1 129/82/1 
s 192
f 131/82/70 132/86/70 130/85/70 
s 193
f 130/85/70 129/81/70 131/82/70 
s 194
f 128/81/73 127/84/73 132/83/73 
s 195
f 132/83/73 131/82/73 128/81/73 
s 196
f 128/82/33 131/88/33 129/87/33 
s 197
f 129/87/33 126/81/33 128/82/33 
s 198
f 133/81/31 134/82/31 135/83/31 
s 199
f 135/83/31 37/84/31 133/81/31 
s 200
f 136/82/1 133/81/1 37/84/1 
s 201
f 37/84/1 137/83/1 136/82/1 
s 202
f 138/82/72 136/81/72 137/84/72 
s 203
f 137/84/72 139/83/72 138/82/72 
s 204
f 134/81/73 138/82/73 139/83/73 
s 205
f 139/83/73 135/84/73 134/81/73 
s 206
f 134/87/33 133/88/33 136/82/33 
s 207
f 136/82/33 138/81/33 134/87/33 
s 208
f 140/2/32 141/89/32 142/90/32 
s 209
f 142/90/32 143/91/32 140/2/32 
s 210
f 144/91/31 140/92/31 143/1/31 
s 211
f 143/1/31 145/2/31 144/91/31 
s 212
f 146/90/33 144/91/33 145/2/33 
s 213
f 145/2/33 147/89/33 146/90/33 
s 214
f 141/1/34 146/2/34 147/91/34 
s 215
f 147/91/34 142/92/34 141/1/34 
s 216
f 148/2/32 149/89/32 150/90/32 
s 217
f 150/90/32 151/91/32 148/2/32 
s 218
f 152/91/31 148/92/31 151/1/31 
s 219
f 151/1/31 153/2/31 152/91/31 
s 220
f 154/90/74 152/91/74 153/2/74 
s 221
f 153/2/74 155/89/74 154/90/74 
s 222
f 149/1/34 154/2/34 155/91/34 
s 223
f 155/91/34 150/92/34 149/1/34 
s 224
f 156/91/31 157/92/31 4/1/31 
s 225
f 4/1/31 3/2/31 156/91/31 
s 226
f 158/90/75 156/91/75 3/2/75 
s 227
f 3/2/75 2/89/75 158/90/75 
s 228
f 159/1/34 158/2/34 2/91/34 
s 229
f 2/91/34 1/92/34 159/1/34 
s 230
f 157/2/32 159/89/32 1/90/32 
s 231
f 1/90/32 4/91/32 157/2/32 
s 232
f 147/2/1 145/3/1 143/4/1 
s 233
f 143/4/1 142/1/1 147/2/1 
s 234
f 155/2/1 153/3/1 151/4/1 
s 235
f 151/4/1 150/1/1 155/2/1 
s 236
f 160/93/76 34/94/77 33/95/78 
s 237
f 33/95/78 161/96/79 160/93/76 
s 238
f 161/96/79 33/95/78 32/97/80 
s 239
f 32/97/80 162/98/80 161/96/79 
s 240
f 162/98/80 32/97/80 31/40/81 
s 241
f 31/40/81 38/39/81 162/98/80 
s 242
f 163/23/82 164/11/83 165/10/84 
s 243
f 166/9/85 165/10/84 164/11/83 
s 244
f 164/11/83 167/12/86 166/9/85 
s 245
f 168/5/87 166/9/85 167/12/86 
s 246
f 167/12/86 164/11/83 169/22/88 
s 247
f 170/21/89 169/22/88 164/11/83 
s 248
f 164/11/83 163/23/82 170/21/89 
s 249
f 171/20/90 170/21/89 163/23/82 
s 250
f 163/23/82 172/24/91 171/20/90 
s 251
f 172/24/91 173/19/92 171/20/90 
s 252
f 174/25/93 173/19/92 172/24/91 
s 253
f 175/26/94 174/25/93 172/24/91 
s 254
f 172/24/91 163/23/82 175/26/94 
s 255
f 165/10/84 175/26/94 163/23/82 
s 256
f 176/14/95 177/6/96 178/13/97 
s 257
f 178/13/97 169/22/88 176/14/95 
s 258
f 179/16/98 176/14/95 169/22/88 
s 259
f 169/22/88 170/21/89 179/16/98 
s 260
f 180/18/99 179/16/98 170/21/89 
s 261
f 170/21/89 171/20/90 180/18/99 
s 262
f 171/20/90 173/19/92 180/18/99 
s 263
f 180/18/99 173/19/92 181/17/100 
s 264
f 179/16/98 180/18/99 181/17/100 
s 265
f 181/17/100 182/15/101 179/16/98 
s 266
f 176/14/95 179/16/98 182/15/101 
s 267
f 182/15/101 183/8/102 176/14/95 
s 268
f 177/6/96 176/14/95 183/8/102 
s 269
f 183/8/102 184/7/103 177/6/96 
s 270
f 168/5/87 177/6/96 184/7/103 
s 271
f 168/5/87 178/13/97 177/6/96 
s 272
f 168/5/87 167/12/86 178/13/97 
s 273
f 169/22/88 178/13/97 167/12/86 
s 274
f 185/23/104 186/11/105 187/10/106 
s 275
f 188/9/107 187/10/106 186/11/105 
s 276
f 186/11/105 189/12/108 188/9/107 
s 277
f 190/5/109 188/9/107 189/12/108 
s 278
f 190/5/109 189/12/108 191/13/110 
s 279
f 190/5/109 191/13/110 192/6/111 
s 280
f 193/14/112 192/6/111 191/13/110 
s 281
f 192/6/111 193/14/112 194/8/113 
s 282
f 195/15/114 194/8/113 193/14/112 
s 283
f 193/14/112 196/16/115 195/15/114 
s 284
f 190/5/109 192/6/111 197/7/116 
s 285
f 194/8/113 197/7/116 192/6/111 
s 286
f 198/17/117 195/15/114 196/16/115 
s 287
f 196/16/115 199/18/118 198/17/117 
s 288
f 199/18/118 200/19/119 198/17/117 
s 289
f 201/20/120 200/19/119 199/18/118 
s 290
f 202/21/121 201/20/120 199/18/118 
s 291
f 199/18/118 196/16/115 202/21/121 
s 292
f 203/22/122 202/21/121 196/16/115 
s 293
f 196/16/115 193/14/112 203/22/122 
s 294
f 191/13/110 203/22/122 193/14/112 
s 295
f 203/22/122 191/13/110 189/12/108 
s 296
f 189/12/108 186/11/105 203/22/122 
s 297
f 202/21/121 203/22/122 186/11/105 
s 298
f 186/11/105 185/23/104 202/21/121 
s 299
f 201/20/120 202/21/121 185/23/104 
s 300
f 185/23/104 204/24/123 201/20/120 
s 301
f 204/24/123 200/19/119 201/20/120 
s 302
f 205/25/124 200/19/119 204/24/123 
s 303
f 206/26/125 205/25/124 204/24/123 
s 304
f 204/24/123 185/23/104 206/26/125 
s 305
f 187/10/106 206/26/125 185/23/104 
s 306
f 37/99/1 36/100/1 158/101/1 
s 307
f 156/102/1 158/101/1 36/100/1 
s 308
f 36/100/1 207/103/1 156/102/1 
s 309
f 157/104/1 156/102/1 207/103/1 
s 310
f 207/103/1 39/105/1 157/104/1 
s 311
f 159/106/1 157/104/1 39/105/1 
s 312
f 39/105/1 37/99/1 159/106/1 
s 313
f 158/101/1 159/106/1 37/99/1 
s 314
f 207/103/1 36/100/1 141/107/1 
s 315
f 141/107/1 140/108/1 207/103/1 
s 316
f 208/109/1 207/103/1 140/108/1 
s 317
f 140/108/1 144/110/1 208/109/1 
s 318
f 35/111/1 208/109/1 144/110/1 
s 319
f 144/110/1 146/112/1 35/111/1 
s 320
f 36/100/1 35/111/1 146/112/1 
s 321
f 146/112/1 141/107/1 36/100/1 
s 322
f 35/111/1 34/94/1 154/113/1 
s 323
f 152/114/1 154/113/1 34/94/1 
s 324
f 34/94/1 160/93/1 152/114/1 
s 325
f 148/115/1 152/114/1 160/93/1 
s 326
f 160/93/1 208/109/1 148/115/1 
s 327
f 149/116/1 148/115/1 208/109/1 
s 328
f 208/109/1 35/111/1 149/116/1 
s 329
f 154/113/1 149/116/1 35/111/1 
s 330
f 30/4/34 39/36/34 207/35/34 
s 331
f 30/4/34 207/35/34 208/34/34 
s 332
f 30/4/34 208/34/34 160/117/34 
s 333
f 30/4/34 160/117/34 161/32/34 
s 334
f 30/4/34 161/32/34 162/31/34 
s 335
f 30/4/34 162/31/34 38/30/34 
s 336
f 30/4/34 38/30/34 27/27/34 
# 336 faces

