mtllib D:\XNALara XPS\data\! Furnishings\! Appliances (for home and other than kitchen)\Dryer - old Venturini brand (CSS)\dryer.mtl
g Model001_Model001_5_Material2453_1.0_0.0_0.0
usemtl Model001_Material001
v 0.340885 -0.008938968 0.28831
vn 0.6153055 -0.4928492 0.6152226
vt 0.9359 1.01
v 0.340885 0.08132502 0.286832
vn 0.6098465 0.5062352 0.6097649
vt 0.9908 1.01
v -0.341008 -0.008938968 0.28831
vn -0.4788361 -0.3917565 0.785648
vt 0.9359 1.4146
v -0.341008 0.08132502 0.286832
vn -0.4995571 0.61755 0.6075152
vt 0.9909 1.8193
v -0.341008 -0.008938968 0.28831
vn -0.4791129 -0.392133 0.7852914
vt 0.9359 1.8193
v 0.349147 0.949781 -0.343909
vn 0.9220075 1.451094E-07 -0.3871721
vt 0.927954 1.657349
v 0.34391 0.08600202 -0.349147
vn 0.3991573 -0.2545317 -0.8808445
vt 0.928627 1.006694
v 0.34391 0.949781 -0.349147
vn 0.3825848 3.278621E-07 -0.9239204
vt 0.929973 1.657349
v 0.349147 0.08600202 -0.34391
vn 0.9508998 -0.185437 -0.2477954
vt 0.926609 1.006694
v 0.349147 0.949781 -0.343909
vn 0.9219572 1.451485E-07 -0.3872918
vt 0.927954 1.657349
v 0.349147 0.08600202 -0.209126
vn 0.9238791 -0.3826844 -1.387553E-07
vt 0.873967 1.006694
v 0.349147 0.948307 -0.209126
vn 0.910936 0.3200212 0.2603497
vt 0.875312 1.657349
v 0.349147 0.08600202 0.343909
vn 0.8562726 -0.3654888 0.3649866
vt 0.659194 1.011617
v 0.349147 0.948307 0.34391
vn 0.8614436 0.3630296 0.35514
vt 0.66054 1.657349
v 0.34391 0.08076403 0.343909
vn 0.3654908 -0.8562714 0.3649873
vt 0.6137 1.8148
v -0.34391 0.08076403 0.343909
vn -0.3654908 -0.8562714 0.3649872
vt 0.3867 1.8148
v 0.34391 0.08076403 -0.209126
vn 0.3840313 -0.92332 8.658895E-05
vt 0.6137 1.4282
v -0.34391 0.08076403 -0.209126
vn -0.4998881 -0.86609 -2.522946E-07
vt 0.3867 1.4282
v 0.345656 0.08076403 -0.34391
vn 0.4479489 -0.8221437 -0.351314
vt 0.6142 1.334
v -0.34391 0.08076403 -0.34391
vn -0.3692387 -0.8664335 -0.3360888
vt 0.3867 1.334
v -0.34391 0.08600202 -0.349147
vn -0.249238 -0.3574338 -0.9000675
vt 0.3867 1.3303
v 0.34391 0.08600202 -0.349147
vn 0.3990976 -0.25439 -0.8809125
vt 0.6137 1.3303
v -0.34391 1.108939 -0.343909
vn -0.3692387 0.8664335 -0.3360888
vt 0.001275 1.088081
v -0.34391 1.108939 -0.279111
vn -0.3344842 0.9191719 0.2079504
vt 0.001275 1.007781
v 0.34391 1.108939 -0.343909
vn 0.5396366 0.8222582 -0.1807866
vt 0.319675 1.088081
v 0.34391 1.108939 -0.279111
vn 0.3403336 0.9191884 0.198156
vt 0.319675 1.007781
v 0.349147 1.103701 -0.277568
vn 0.8721925 0.4417902 0.2100041
vt 0.322175 1.005881
v 0.34391 1.108939 -0.279111
vn 0.3402608 0.9191535 0.1984426
vt 0.319675 1.007781
v 0.349147 1.103701 -0.343909
vn 0.8664325 0.3692411 -0.3360889
vt 0.322175 1.088081
v 0.34391 1.103701 -0.349147
vn 0.3479288 0.2623055 -0.9000786
vt 0.319675 1.094581
v -0.34391 1.103701 -0.349147
vn -0.249238 0.3574338 -0.9000675
vt 0.001275 1.094581
v -0.34391 0.953545 0.34391
vn -0.3574327 0.9000683 0.2492369
vt 0.6498 1.8631
v -0.349147 0.948307 -0.209126
vn -0.9072816 0.3305843 0.2599117
vt 0.3931 1.8601
v -0.349147 0.948307 0.34391
vn -0.8614436 0.3630296 0.3551399
vt 0.6498 1.8605
v -0.34391 0.953545 -0.209126
vn -0.380971 0.8513489 0.360647
vt 0.3931 1.8626
v 0.349147 0.948307 0.34391
vn 0.8613311 0.3630319 0.3554104
vt 0.3294 1.8573
v 0.34391 0.953545 -0.209126
vn 0.3771735 0.8511036 0.3651888
vt 0.5848 1.8626
v 0.34391 0.953545 0.34391
vn 0.3574328 0.9000682 0.2492369
vt 0.3294 1.8599
v 0.349147 0.948307 -0.209126
vn 0.9108679 0.3199876 0.2606293
vt 0.5848 1.8601
v 0.34391 0.08600202 0.349147
vn 0.4413227 -0.4413211 0.7813257
vt 0.6538 1.0042
v 0.34391 0.08076403 0.343909
vn 0.3654731 -0.8562433 0.365071
vt 0.6514 0.9991
v 0.349147 0.08600202 0.343909
vn 0.8562445 -0.3654711 0.3650703
vt 0.6514 1.0042
v 0.34391 0.08600202 -0.349147
vn 0.3989483 -0.2540358 -0.8810823
vt 0.652612 1.141867
v 0.349147 0.949781 -0.343909
vn 0.9218313 1.452462E-07 -0.3875912
vt 0.650991 1.996758
v 0.349147 0.08600202 -0.34391
vn 0.9508998 -0.185437 -0.2477954
vt 0.647748 1.141867
v 0.345656 0.08076403 -0.34391
vn 0.4479489 -0.8221437 -0.351314
vt 0.647748 1.136853
v 0.34391 0.08076403 -0.209126
vn 0.3840313 -0.92332 8.658895E-05
vt 0.520881 1.136853
v 0.349147 0.08600202 -0.209126
vn 0.9238791 -0.3826844 -1.387553E-07
vt 0.520881 1.141867
v 0.34391 0.08076403 0.343909
vn 0.3654287 -0.856173 0.3652802
vt 0.003282 1.140884
v 0.349147 0.08600202 0.343909
vn 0.8561742 -0.3654267 0.3652795
vt 0.003282 1.145997
v 0.234928 1.05963 -0.240252
vn -0.6805381 0.732697 -0.004806707
vt 0.965944 1.941777
v 0.236868 1.061499 -0.230078
vn -0.5362062 0.7462969 0.3943652
vt 0.968344 1.926577
v 0.251746 1.05963 -0.240252
vn 0.6805374 0.7326976 -0.004808675
vt 0.986744 1.941777
v 0.249806 1.061499 -0.230078
vn 0.4530596 0.7576815 0.46974
vt 0.984344 1.926577
v 0.234928 1.01397 -0.22087
vn -0.6805456 -0.5125183 0.5236245
vt 0.972944 1.894577
v 0.236868 1.019988 -0.212458
vn -0.5198814 -0.1254785 0.8449725
vt 0.979444 1.898177
v 0.234928 1.05963 -0.240252
vn -0.6805381 0.732697 -0.004806707
vt 0.972944 1.973777
v 0.236868 1.061499 -0.230078
vn -0.5359148 0.7462155 0.3949149
vt 0.979444 1.970177
v -0.341008 0.08132502 -0.345565
vn -0.4995572 0.6075151 -0.61755
vt 0.319187 1.105867
v 0.340885 0.08132502 -0.345565
vn 0.6153054 0.4928491 -0.6152228
vt 0.002823 1.105867
v -0.341008 -0.008938015 -0.344086
vn -0.6098464 -0.5062354 -0.6097648
vt 0.319187 1.003691
v 0.340885 -0.008938015 -0.344086
vn 0.6098464 -0.5062354 -0.6097648
vt 0.002823 1.003691
v 0.34391 1.103701 -0.349147
vn 0.3482336 0.2621291 -0.9000121
vt 0.001 1.9985
v 0.34391 0.949781 -0.349147
vn 0.3826346 3.278551E-07 -0.9238997
vt 0.001 1.877121
v -0.34391 1.103701 -0.349147
vn -0.2495956 0.3573796 -0.8999899
vt 0.3263 1.9985
v -0.34391 0.949876 -0.349147
vn -0.4535939 3.22651E-07 -0.8912085
vt 0.3263 1.877266
v 0.249806 1.019988 -0.212458
vn 0.4530583 -0.1885246 0.8713189
vt 0.979644 1.898177
v 0.249806 1.061499 -0.230078
vn 0.4536734 0.7573672 0.4696546
vt 0.979644 1.970177
v 0.236868 1.019988 -0.212458
vn -0.5196187 -0.1261071 0.8450405
vt 0.972844 1.898177
v 0.236868 1.061499 -0.230078
vn -0.5359148 0.7462155 0.3949149
vt 0.972844 1.970177
v 0.251746 1.01397 -0.22087
vn 0.6805449 -0.5125201 0.5236238
vt 0.965944 1.941777
v 0.249806 1.019988 -0.212458
vn 0.453672 -0.1883676 0.8710335
vt 0.968344 1.926577
v 0.234928 1.01397 -0.22087
vn -0.6805456 -0.5125183 0.5236245
vt 0.986744 1.941777
v 0.236868 1.019988 -0.212458
vn -0.5196187 -0.1261071 0.8450405
vt 0.984344 1.926577
v 0.249806 1.019988 -0.212458
vn 0.453672 -0.1883676 0.8710335
vt 0.957144 1.898177
v 0.251746 1.01397 -0.22087
vn 0.6805449 -0.5125201 0.5236238
vt 0.963644 1.894577
v 0.249806 1.061499 -0.230078
vn 0.4536734 0.7573672 0.4696546
vt 0.957144 1.970177
v 0.251746 1.05963 -0.240252
vn 0.6805374 0.7326976 -0.004808675
vt 0.963644 1.973777
v 0.340885 0.08132502 -0.345565
vn 0.615036 0.4935212 -0.6149533
vt 0.320964 1.106371
v 0.340885 0.08132502 0.286832
vn 0.6095738 0.5068917 0.6094921
vt 0.002464 1.106371
v 0.340885 -0.008938015 -0.344086
vn 0.6095737 -0.5068918 -0.6094921
vt 0.320264 1.001946
v 0.340885 -0.008938968 0.28831
vn 0.615036 -0.4935213 0.6149532
vt 0.001764 1.001946
v -0.341008 0.08132502 -0.345565
vn -0.5002215 0.6072462 -0.6172767
vt 0.0005 1.9995
v -0.341008 0.08132502 0.286832
vn -0.5002214 0.6172767 0.6072463
vt 0.0005 1.0028
v 0.340885 0.08132502 -0.345565
vn 0.615036 0.4935212 -0.6149533
vt 0.9995 1.9995
v 0.340885 0.08132502 0.286832
vn 0.6095738 0.5068917 0.6094921
vt 0.9995 1.0028
v 0.34391 0.949781 -0.349147
vn 0.3827592 3.278375E-07 -0.9238481
vt 0.001 1.87587
v 0.34391 0.08600202 -0.349147
vn 0.3989483 -0.2540358 -0.8810823
vt 0.001 1.110163
v -0.34391 0.949876 -0.349147
vn -0.4533522 3.226926E-07 -0.8913314
vt 0.3263 1.876014
v -0.34391 0.08600202 -0.349147
vn -0.2495956 -0.3573796 -0.8999899
vt 0.3263 1.110163
v -0.341008 -0.008938015 -0.344086
vn -0.6095737 -0.5068918 -0.6094921
vt 0.002464 1.001946
v -0.341008 -0.008938968 0.28831
vn -0.4798042 -0.3930736 0.7843986
vt 0.320964 1.001946
v -0.341008 0.08132502 -0.345565
vn -0.5002216 0.6072462 -0.6172767
vt 0.001764 1.106371
v -0.341008 0.08132502 0.286832
vn -0.5002214 0.6172767 0.6072463
vt 0.320264 1.106371
v -0.341008 -0.008938968 0.28831
vn -0.4798042 -0.3930736 0.7843986
vt 0.6566 1.6662
v -0.341008 -0.008938015 -0.344086
vn -0.6095737 -0.5068918 -0.6094921
vt 0.6566 1.8277
v 0.340885 -0.008938968 0.28831
vn 0.615036 -0.4935213 0.6149532
vt 0.7381 1.6662
v 0.340885 -0.008938015 -0.344086
vn 0.6095737 -0.5068918 -0.6094921
vt 0.7381 1.8277
v -0.34391 0.953545 -0.209126
vn -0.3809297 0.8511535 0.3611514
vt 0.912628 1.996473
v -0.34391 0.953545 0.34391
vn -0.3573785 0.8999906 0.2495946
vt 0.656244 1.996473
v 0.34391 0.953545 -0.209126
vn 0.3771259 0.8509056 0.3656989
vt 0.912628 1.662738
v 0.34391 0.953545 0.34391
vn 0.3573785 0.8999907 0.2495945
vt 0.656244 1.662738
v 0.349147 1.103701 -0.277568
vn 0.8720836 0.4418611 0.2103068
vt 0.087612 1.052582
v 0.349147 0.948307 -0.209126
vn 0.9106971 0.3199036 0.2613281
vt 0.031177 1.001841
v 0.349147 1.103701 -0.343909
vn 0.8664325 0.3692411 -0.3360889
vt 0.087612 1.101808
v 0.349147 0.949781 -0.343909
vn 0.9218313 1.452462E-07 -0.3875912
vt 0.033051 1.101808
v 0.34391 0.949781 -0.349147
vn 0.3827592 3.278375E-07 -0.9238481
vt 0.033051 1.1057
v 0.34391 1.103701 -0.349147
vn 0.3482336 0.2621291 -0.9000121
vt 0.087612 1.1057
v -0.34391 0.08600202 0.349147
vn -0.4413228 -0.4413207 0.7813259
vt 0.6538 1.0042
v -0.349147 0.08600202 0.343909
vn -0.843682 -0.4510837 0.2910742
vt 0.6514 1.0042
v -0.34391 0.08076403 0.343909
vn -0.3654731 -0.8562433 0.3650709
vt 0.6514 0.9991
v -0.349147 0.08600202 0.343909
vn -0.8435696 -0.4512958 0.2910713
vt 0.659097 1.141867
v -0.34391 0.08076403 -0.209126
vn -0.5000542 -0.8659941 -2.522522E-07
vt 0.138863 1.136853
v -0.34391 0.08076403 0.343909
vn -0.3654288 -0.856173 0.3652802
vt 0.659097 1.136853
v -0.349147 0.08600202 0.343909
vn -0.8438368 -0.4508115 0.2910472
vt 0.659097 1.141867
v -0.349147 0.08600202 -0.209126
vn -0.9238791 -0.3826844 -1.16972E-07
vt 0.138863 1.141867
v -0.34391 0.08076403 -0.34391
vn -0.3692387 -0.8664335 -0.3360888
vt 0.011996 1.136853
v -0.349147 0.08600202 -0.34391
vn -0.937255 -0.2459397 -0.2471168
vt 0.011996 1.141867
v -0.34391 0.08600202 -0.349147
vn -0.2495956 -0.3573796 -0.8999899
vt 0.007132 1.141867
v -0.34391 0.949876 -0.349147
vn -0.4539191 3.225972E-07 -0.8910429
vt 0.001863 1.996758
v -0.349147 0.08600202 0.343909
vn -0.8441319 -0.450274 0.2910237
vt 0.931318 1.008633
v -0.349147 0.948307 0.34391
vn -0.8613311 0.3630319 0.3554103
vt 0.929973 1.657349
v -0.349147 0.08600202 -0.209126
vn -0.9238791 -0.3826844 -1.16972E-07
vt 0.715452 1.006694
v -0.349147 0.948307 -0.209126
vn -0.9072726 0.330497 0.2600541
vt 0.714107 1.657349
v -0.349147 0.08600202 -0.34391
vn -0.937255 -0.2459397 -0.2471168
vt 0.66281 1.006694
v -0.349147 0.949876 -0.343909
vn -0.9238779 1.520677E-07 -0.3826874
vt 0.660624 1.657349
v -0.34391 0.949876 -0.349147
vn -0.4545462 3.224913E-07 -0.8907231
vt 0.658606 1.657349
v -0.34391 0.953545 -0.209126
vn -0.3809297 0.8511535 0.3611514
vt 0.3311 1.8724
v -0.349147 1.103701 -0.277568
vn -0.847762 0.4252673 0.3169343
vt 0.3285 1.9941
v -0.349147 0.948307 -0.209126
vn -0.90725 0.3302788 0.2604099
vt 0.3285 1.8724
v -0.34391 1.104005 -0.272114
vn -0.4464012 0.5007651 0.7415931
vt 0.3311 1.9944
v 0.34391 1.104005 -0.272114
vn 0.3323778 0.5738168 0.7485047
vt 0.6503 1.9944
v 0.349147 0.948307 -0.209126
vn 0.9106971 0.3199036 0.2613281
vt 0.6521 1.8724
v 0.349147 1.103701 -0.277568
vn 0.8720836 0.4418611 0.2103068
vt 0.6521 1.9941
v 0.34391 0.953545 -0.209126
vn 0.3771259 0.8509056 0.3656989
vt 0.6503 1.8724
v -0.34391 1.104005 -0.272114
vn -0.4464012 0.5007651 0.7415931
vt 0.331115 1.994383
v -0.34391 0.08076403 0.343909
vn -0.3654288 -0.856173 0.3652802
vt 0.3301 1.0033
v 0.34391 0.08600202 0.349147
vn 0.4413227 -0.4413211 0.7813257
vt 0.6495 1.0085
v -0.34391 0.08600202 0.349147
vn -0.4413228 -0.4413207 0.7813259
vt 0.3301 1.0085
v 0.34391 0.08076403 0.343909
vn 0.3654287 -0.856173 0.3652802
vt 0.6495 1.0033
v -0.349147 0.948307 0.34391
vn -0.8610497 0.3630374 0.3560861
vt 0.3272 1.8593
v -0.349147 0.08600202 0.343909
vn -0.8441319 -0.450274 0.2910237
vt 0.3272 1.0081
v -0.34391 0.948307 0.349147
vn -0.3360915 0.3692403 0.8664318
vt 0.3301 1.8597
v 0.34391 0.948307 0.349147
vn 0.336092 0.3692403 0.8664316
vt 0.6495 1.8597
v 0.349147 0.08600202 0.343909
vn 0.8561742 -0.3654267 0.3652795
vt 0.6519 1.0085
v 0.349147 0.948307 0.34391
vn 0.8610497 0.3630374 0.3560862
vt 0.6519 1.8597
v 0.34391 1.108939 -0.279111
vn 0.3402608 0.9191535 0.1984426
vt 0.649515 2
v -0.34391 1.108939 -0.279111
vn -0.3347967 0.9190898 0.2078101
vt 0.331115 2
v -0.349147 0.949876 -0.343909
vn -0.9238779 1.520677E-07 -0.3826874
vt 0.033051 1.101808
v -0.34391 1.103701 -0.349147
vn -0.2495956 0.3573796 -0.8999899
vt 0.087612 1.1057
v -0.34391 0.949876 -0.349147
vn -0.4545462 3.224913E-07 -0.8907231
vt 0.033051 1.1057
v -0.349147 1.103701 -0.343909
vn -0.8755787 0.3415869 -0.341585
vt 0.087612 1.101808
v -0.34391 1.108939 -0.343909
vn -0.3692387 0.8664335 -0.3360888
vt 0.089486 1.101808
v -0.34391 1.108939 -0.279111
vn -0.3347967 0.9190898 0.2078101
vt 0.089486 1.053735
v -0.349147 1.103701 -0.277568
vn -0.847762 0.4252673 0.3169343
vt 0.087612 1.052582
v -0.349147 0.948307 -0.209126
vn -0.90725 0.3302788 0.2604099
vt 0.031177 1.001841
v -0.349147 0.948307 0.34391
vn -0.8610496 0.3630375 0.3560862
vt 0.3276 1.8592
v -0.34391 0.948307 0.349147
vn -0.3360915 0.3692403 0.8664318
vt 0.3301 1.8592
v -0.34391 0.953545 0.34391
vn -0.3573785 0.8999906 0.2495946
vt 0.3301 1.863
v 0.34391 0.953545 0.34391
vn 0.3573785 0.8999907 0.2495945
vt 0.6495 1.863
v 0.34391 0.948307 0.349147
vn 0.336092 0.3692403 0.8664316
vt 0.6495 1.8592
v 0.349147 0.948307 0.34391
vn 0.8610496 0.3630375 0.3560862
vt 0.6519 1.8592
v 0.235504 1.013835 -0.219891
vn -0.3157336 -0.5394431 0.7805853
vt 0.934544 1.905677
v 0.251749 1.013835 -0.219891
vn 0.303291 -0.5359275 0.7879063
vt 0.944244 1.905677
v 0.264893 1.022627 -0.223624
vn 0.5720475 -0.106273 0.8133067
vt 0.952044 1.918577
v 0.22236 1.022627 -0.223624
vn -0.5720554 -0.1062905 0.8132988
vt 0.926744 1.918577
v 0.217339 1.03685 -0.22966
vn -0.7070926 0.2762799 0.6509143
vt 0.923744 1.939377
v 0.22236 1.051073 -0.235698
vn -0.5720091 0.6589125 0.4885079
vt 0.926744 1.960177
v 0.235504 1.059862 -0.23943
vn -0.2184546 0.8953354 0.3881393
vt 0.934544 1.973077
v 0.251749 1.059862 -0.23943
vn 0.2184676 0.8953215 0.3881641
vt 0.944244 1.973077
v 0.264893 1.051073 -0.235698
vn 0.5719783 0.658896 0.4885661
vt 0.952044 1.960177
v 0.269914 1.03685 -0.22966
vn 0.7070254 0.2763081 0.6509754
vt 0.955044 1.939377
v 0.264893 1.022627 -0.223624
vn 0.5720475 -0.106273 0.8133067
vt 0.990844 1.838877
v 0.251749 1.013835 -0.219891
vn 0.3031003 -0.5363128 0.7877174
vt 0.998944 1.838877
v 0.251749 1.008527 -0.232401
vn 0.3090293 -0.8754659 0.3715647
vt 0.998944 1.865677
v 0.264893 1.017316 -0.236134
vn 0.80899 -0.541072 0.229731
vt 0.990844 1.865677
v 0.269914 1.03685 -0.22966
vn 0.7070254 0.2763081 0.6509754
vt 0.982744 1.838877
v 0.269914 1.031539 -0.242169
vn 1 -4.13186E-05 3.131071E-05
vt 0.982744 1.865677
v 0.264893 1.051073 -0.235698
vn 0.5719783 0.658896 0.4885661
vt 0.974644 1.838877
v 0.264893 1.045764 -0.248207
vn 0.8090027 0.5410968 -0.2296279
vt 0.974644 1.865677
v 0.251749 1.059862 -0.23943
vn 0.2184676 0.8953215 0.3881641
vt 0.966644 1.838877
v 0.251749 1.054553 -0.25194
vn 0.308981 0.8754939 -0.371539
vt 0.966644 1.865677
v 0.235504 1.059862 -0.23943
vn -0.2184546 0.8953354 0.3881393
vt 0.958544 1.838877
v 0.235504 1.054553 -0.25194
vn -0.3089809 0.8754939 -0.371539
vt 0.958544 1.865677
v 0.22236 1.051073 -0.235698
vn -0.5720091 0.6589125 0.4885079
vt 0.950444 1.838877
v 0.22236 1.045764 -0.248207
vn -0.8089947 0.5411018 -0.229644
vt 0.950444 1.865677
v 0.217339 1.03685 -0.22966
vn -0.7070926 0.2762799 0.6509143
vt 0.942444 1.838877
v 0.217339 1.031539 -0.242169
vn -1 -5.79955E-05 2.483469E-05
vt 0.942444 1.865677
v 0.22236 1.022627 -0.223624
vn -0.5720554 -0.1062905 0.8132988
vt 0.934344 1.838877
v 0.22236 1.017316 -0.236134
vn -0.7389594 -0.6201938 0.2632465
vt 0.934344 1.865677
v 0.235504 1.013835 -0.219891
vn -0.3159851 -0.5396717 0.7803255
vt 0.926244 1.838877
v 0.235504 1.008527 -0.232401
vn -0.3090142 -0.8754834 0.3715362
vt 0.926244 1.865677
v 0.251749 1.013835 -0.219891
vn 0.3031003 -0.5363128 0.7877174
vt 0.918244 1.838877
v 0.251749 1.008527 -0.232401
vn 0.3090293 -0.8754659 0.3715647
vt 0.918244 1.865677
f -194/-194/-194 -193/-193/-193 -192/-192/-192
f -191/-191/-191 -190/-190/-190 -193/-193/-193
f -189/-189/-189 -188/-188/-188 -187/-187/-187
f -186/-186/-186 -185/-185/-185 -184/-184/-184
f -183/-183/-183 -184/-184/-184 -189/-189/-189
f -184/-184/-184 -183/-183/-183 -182/-182/-182
f -181/-181/-181 -182/-182/-182 -183/-183/-183
f -180/-180/-180 -179/-179/-179 -178/-178/-178
f -177/-177/-177 -178/-178/-178 -179/-179/-179
f -178/-178/-178 -177/-177/-177 -176/-176/-176
f -175/-175/-175 -176/-176/-176 -177/-177/-177
f -174/-174/-174 -176/-176/-176 -175/-175/-175
f -173/-173/-173 -176/-176/-176 -174/-174/-174
f -172/-172/-172 -171/-171/-171 -170/-170/-170
f -169/-169/-169 -170/-170/-170 -171/-171/-171
f -168/-168/-168 -170/-170/-170 -167/-167/-167
f -170/-170/-170 -168/-168/-168 -166/-166/-166
f -165/-165/-165 -170/-170/-170 -166/-166/-166
f -165/-165/-165 -172/-172/-172 -170/-170/-170
f -172/-172/-172 -165/-165/-165 -164/-164/-164
f -163/-163/-163 -162/-162/-162 -161/-161/-161
f -162/-162/-162 -163/-163/-163 -160/-160/-160
f -159/-159/-159 -158/-158/-158 -157/-157/-157
f -158/-158/-158 -159/-159/-159 -156/-156/-156
f -155/-155/-155 -154/-154/-154 -153/-153/-153
f -152/-152/-152 -151/-151/-151 -150/-150/-150
f -150/-150/-150 -149/-149/-149 -152/-152/-152
f -150/-150/-150 -148/-148/-148 -149/-149/-149
f -148/-148/-148 -150/-150/-150 -147/-147/-147
f -147/-147/-147 -146/-146/-146 -148/-148/-148
f -146/-146/-146 -147/-147/-147 -145/-145/-145
f -144/-144/-144 -143/-143/-143 -142/-142/-142
f -141/-141/-141 -142/-142/-142 -143/-143/-143
f -140/-140/-140 -139/-139/-139 -138/-138/-138
f -137/-137/-137 -138/-138/-138 -139/-139/-139
f -136/-136/-136 -135/-135/-135 -134/-134/-134
f -133/-133/-133 -134/-134/-134 -135/-135/-135
f -132/-132/-132 -131/-131/-131 -130/-130/-130
f -129/-129/-129 -130/-130/-130 -131/-131/-131
f -128/-128/-128 -127/-127/-127 -126/-126/-126
f -125/-125/-125 -126/-126/-126 -127/-127/-127
f -124/-124/-124 -123/-123/-123 -122/-122/-122
f -121/-121/-121 -122/-122/-122 -123/-123/-123
f -120/-120/-120 -119/-119/-119 -118/-118/-118
f -117/-117/-117 -118/-118/-118 -119/-119/-119
f -116/-116/-116 -115/-115/-115 -114/-114/-114
f -113/-113/-113 -114/-114/-114 -115/-115/-115
f -112/-112/-112 -111/-111/-111 -110/-110/-110
f -109/-109/-109 -110/-110/-110 -111/-111/-111
f -108/-108/-108 -107/-107/-107 -106/-106/-106
f -105/-105/-105 -106/-106/-106 -107/-107/-107
f -104/-104/-104 -103/-103/-103 -102/-102/-102
f -101/-101/-101 -102/-102/-102 -103/-103/-103
f -100/-100/-100 -99/-99/-99 -98/-98/-98
f -97/-97/-97 -98/-98/-98 -99/-99/-99
f -96/-96/-96 -95/-95/-95 -94/-94/-94
f -93/-93/-93 -94/-94/-94 -95/-95/-95
f -92/-92/-92 -91/-91/-91 -90/-90/-90
f -89/-89/-89 -90/-90/-90 -91/-91/-91
f -88/-88/-88 -90/-90/-90 -89/-89/-89
f -90/-90/-90 -88/-88/-88 -87/-87/-87
f -86/-86/-86 -85/-85/-85 -84/-84/-84
f -83/-83/-83 -82/-82/-82 -81/-81/-81
f -82/-82/-82 -80/-80/-80 -79/-79/-79
f -79/-79/-79 -78/-78/-78 -82/-82/-82
f -78/-78/-78 -79/-79/-79 -77/-77/-77
f -76/-76/-76 -78/-78/-78 -77/-77/-77
f -77/-77/-77 -75/-75/-75 -76/-76/-76
f -74/-74/-74 -73/-73/-73 -72/-72/-72
f -71/-71/-71 -72/-72/-72 -73/-73/-73
f -72/-72/-72 -71/-71/-71 -70/-70/-70
f -69/-69/-69 -70/-70/-70 -71/-71/-71
f -68/-68/-68 -70/-70/-70 -69/-69/-69
f -67/-67/-67 -66/-66/-66 -65/-65/-65
f -66/-66/-66 -67/-67/-67 -64/-64/-64
f -63/-63/-63 -62/-62/-62 -61/-61/-61
f -62/-62/-62 -63/-63/-63 -60/-60/-60
f -60/-60/-60 -63/-63/-63 -67/-67/-67
f -59/-59/-59 -67/-67/-67 -63/-63/-63
f -58/-58/-58 -57/-57/-57 -56/-56/-56
f -57/-57/-57 -58/-58/-58 -55/-55/-55
f -56/-56/-56 -54/-54/-54 -53/-53/-53
f -54/-54/-54 -56/-56/-56 -52/-52/-52
f -52/-52/-52 -56/-56/-56 -51/-51/-51
f -57/-57/-57 -51/-51/-51 -56/-56/-56
f -50/-50/-50 -51/-51/-51 -57/-57/-57
f -51/-51/-51 -50/-50/-50 -49/-49/-49
f -61/-61/-61 -48/-48/-48 -63/-63/-63
f -48/-48/-48 -59/-59/-59 -63/-63/-63
f -59/-59/-59 -48/-48/-48 -47/-47/-47
f -66/-66/-66 -59/-59/-59 -47/-47/-47
f -46/-46/-46 -45/-45/-45 -44/-44/-44
f -45/-45/-45 -46/-46/-46 -43/-43/-43
f -43/-43/-43 -42/-42/-42 -45/-45/-45
f -43/-43/-43 -41/-41/-41 -42/-42/-42
f -41/-41/-41 -43/-43/-43 -40/-40/-40
f -43/-43/-43 -46/-46/-46 -40/-40/-40
f -39/-39/-39 -40/-40/-40 -46/-46/-46
f -38/-38/-38 -37/-37/-37 -36/-36/-36
f -37/-37/-37 -35/-35/-35 -36/-36/-36
f -35/-35/-35 -37/-37/-37 -34/-34/-34
f -33/-33/-33 -35/-35/-35 -34/-34/-34
f -32/-32/-32 -31/-31/-31 -30/-30/-30
f -29/-29/-29 -32/-32/-32 -30/-30/-30
f -28/-28/-28 -29/-29/-29 -30/-30/-30
f -27/-27/-27 -28/-28/-28 -30/-30/-30
f -26/-26/-26 -27/-27/-27 -30/-30/-30
f -25/-25/-25 -26/-26/-26 -30/-30/-30
f -24/-24/-24 -25/-25/-25 -30/-30/-30
f -23/-23/-23 -24/-24/-24 -30/-30/-30
f -22/-22/-22 -21/-21/-21 -20/-20/-20
f -19/-19/-19 -22/-22/-22 -20/-20/-20
f -18/-18/-18 -22/-22/-22 -19/-19/-19
f -17/-17/-17 -18/-18/-18 -19/-19/-19
f -16/-16/-16 -18/-18/-18 -17/-17/-17
f -15/-15/-15 -16/-16/-16 -17/-17/-17
f -14/-14/-14 -16/-16/-16 -15/-15/-15
f -13/-13/-13 -14/-14/-14 -15/-15/-15
f -12/-12/-12 -14/-14/-14 -13/-13/-13
f -11/-11/-11 -12/-12/-12 -13/-13/-13
f -10/-10/-10 -12/-12/-12 -11/-11/-11
f -9/-9/-9 -10/-10/-10 -11/-11/-11
f -8/-8/-8 -10/-10/-10 -9/-9/-9
f -7/-7/-7 -8/-8/-8 -9/-9/-9
f -6/-6/-6 -8/-8/-8 -7/-7/-7
f -5/-5/-5 -6/-6/-6 -7/-7/-7
f -4/-4/-4 -6/-6/-6 -5/-5/-5
f -3/-3/-3 -4/-4/-4 -5/-5/-5
f -2/-2/-2 -4/-4/-4 -3/-3/-3
f -1/-1/-1 -2/-2/-2 -3/-3/-3

